<svg version="1.1" xmlns="http://www.w3.org/2000/svg" xmlns:xlink="http://www.w3.org/1999/xlink" width="800" height="800"><defs/><g transform="scale(2,2)"><g id="background-15265e5b"><rect fill="white" stroke="none" x="0" y="0" width="400" height="400" class="dcg-svg-background"/></g><g id="background-images-15265e5b"/><g id="graphpaper-15265e5b"><g id="grid-15265e5b"><g><path fill="none" stroke="rgb(0,0,0)" class="dcg-svg-minor-gridline" paint-order="fill stroke markers" d=" M 9.5 0 L 9.5 400" stroke-opacity="0.2" stroke-miterlimit="10" stroke-dasharray=""/><path fill="none" stroke="rgb(0,0,0)" class="dcg-svg-minor-gridline" paint-order="fill stroke markers" d=" M 29.5 0 L 29.5 400" stroke-opacity="0.2" stroke-miterlimit="10" stroke-dasharray=""/><path fill="none" stroke="rgb(0,0,0)" class="dcg-svg-minor-gridline" paint-order="fill stroke markers" d=" M 69.5 0 L 69.5 400" stroke-opacity="0.2" stroke-miterlimit="10" stroke-dasharray=""/><path fill="none" stroke="rgb(0,0,0)" class="dcg-svg-minor-gridline" paint-order="fill stroke markers" d=" M 89.5 0 L 89.5 400" stroke-opacity="0.2" stroke-miterlimit="10" stroke-dasharray=""/><path fill="none" stroke="rgb(0,0,0)" class="dcg-svg-minor-gridline" paint-order="fill stroke markers" d=" M 109.5 0 L 109.5 400" stroke-opacity="0.2" stroke-miterlimit="10" stroke-dasharray=""/><path fill="none" stroke="rgb(0,0,0)" class="dcg-svg-minor-gridline" paint-order="fill stroke markers" d=" M 129.5 0 L 129.5 400" stroke-opacity="0.2" stroke-miterlimit="10" stroke-dasharray=""/><path fill="none" stroke="rgb(0,0,0)" class="dcg-svg-minor-gridline" paint-order="fill stroke markers" d=" M 149.5 0 L 149.5 400" stroke-opacity="0.2" stroke-miterlimit="10" stroke-dasharray=""/><path fill="none" stroke="rgb(0,0,0)" class="dcg-svg-minor-gridline" paint-order="fill stroke markers" d=" M 169.5 0 L 169.5 400" stroke-opacity="0.2" stroke-miterlimit="10" stroke-dasharray=""/><path fill="none" stroke="rgb(0,0,0)" class="dcg-svg-minor-gridline" paint-order="fill stroke markers" d=" M 189.5 0 L 189.5 400" stroke-opacity="0.2" stroke-miterlimit="10" stroke-dasharray=""/><path fill="none" stroke="rgb(0,0,0)" class="dcg-svg-minor-gridline" paint-order="fill stroke markers" d=" M 209.5 0 L 209.5 400" stroke-opacity="0.2" stroke-miterlimit="10" stroke-dasharray=""/><path fill="none" stroke="rgb(0,0,0)" class="dcg-svg-minor-gridline" paint-order="fill stroke markers" d=" M 229.5 0 L 229.5 400" stroke-opacity="0.2" stroke-miterlimit="10" stroke-dasharray=""/><path fill="none" stroke="rgb(0,0,0)" class="dcg-svg-minor-gridline" paint-order="fill stroke markers" d=" M 249.5 0 L 249.5 400" stroke-opacity="0.2" stroke-miterlimit="10" stroke-dasharray=""/><path fill="none" stroke="rgb(0,0,0)" class="dcg-svg-minor-gridline" paint-order="fill stroke markers" d=" M 269.5 0 L 269.5 400" stroke-opacity="0.2" stroke-miterlimit="10" stroke-dasharray=""/><path fill="none" stroke="rgb(0,0,0)" class="dcg-svg-minor-gridline" paint-order="fill stroke markers" d=" M 289.5 0 L 289.5 400" stroke-opacity="0.2" stroke-miterlimit="10" stroke-dasharray=""/><path fill="none" stroke="rgb(0,0,0)" class="dcg-svg-minor-gridline" paint-order="fill stroke markers" d=" M 309.5 0 L 309.5 400" stroke-opacity="0.2" stroke-miterlimit="10" stroke-dasharray=""/><path fill="none" stroke="rgb(0,0,0)" class="dcg-svg-minor-gridline" paint-order="fill stroke markers" d=" M 329.5 0 L 329.5 400" stroke-opacity="0.2" stroke-miterlimit="10" stroke-dasharray=""/><path fill="none" stroke="rgb(0,0,0)" class="dcg-svg-minor-gridline" paint-order="fill stroke markers" d=" M 349.5 0 L 349.5 400" stroke-opacity="0.2" stroke-miterlimit="10" stroke-dasharray=""/><path fill="none" stroke="rgb(0,0,0)" class="dcg-svg-minor-gridline" paint-order="fill stroke markers" d=" M 369.5 0 L 369.5 400" stroke-opacity="0.2" stroke-miterlimit="10" stroke-dasharray=""/><path fill="none" stroke="rgb(0,0,0)" class="dcg-svg-minor-gridline" paint-order="fill stroke markers" d=" M 389.5 0 L 389.5 400" stroke-opacity="0.2" stroke-miterlimit="10" stroke-dasharray=""/><path fill="none" stroke="rgb(0,0,0)" class="dcg-svg-minor-gridline" paint-order="fill stroke markers" d=" M 0 387.5 L 400 387.5" stroke-opacity="0.2" stroke-miterlimit="10" stroke-dasharray=""/><path fill="none" stroke="rgb(0,0,0)" class="dcg-svg-minor-gridline" paint-order="fill stroke markers" d=" M 0 364.5 L 400 364.5" stroke-opacity="0.2" stroke-miterlimit="10" stroke-dasharray=""/><path fill="none" stroke="rgb(0,0,0)" class="dcg-svg-minor-gridline" paint-order="fill stroke markers" d=" M 0 317.5 L 400 317.5" stroke-opacity="0.2" stroke-miterlimit="10" stroke-dasharray=""/><path fill="none" stroke="rgb(0,0,0)" class="dcg-svg-minor-gridline" paint-order="fill stroke markers" d=" M 0 293.5 L 400 293.5" stroke-opacity="0.2" stroke-miterlimit="10" stroke-dasharray=""/><path fill="none" stroke="rgb(0,0,0)" class="dcg-svg-minor-gridline" paint-order="fill stroke markers" d=" M 0 270.5 L 400 270.5" stroke-opacity="0.2" stroke-miterlimit="10" stroke-dasharray=""/><path fill="none" stroke="rgb(0,0,0)" class="dcg-svg-minor-gridline" paint-order="fill stroke markers" d=" M 0 246.5 L 400 246.5" stroke-opacity="0.2" stroke-miterlimit="10" stroke-dasharray=""/><path fill="none" stroke="rgb(0,0,0)" class="dcg-svg-minor-gridline" paint-order="fill stroke markers" d=" M 0 223.5 L 400 223.5" stroke-opacity="0.2" stroke-miterlimit="10" stroke-dasharray=""/><path fill="none" stroke="rgb(0,0,0)" class="dcg-svg-minor-gridline" paint-order="fill stroke markers" d=" M 0 199.5 L 400 199.5" stroke-opacity="0.2" stroke-miterlimit="10" stroke-dasharray=""/><path fill="none" stroke="rgb(0,0,0)" class="dcg-svg-minor-gridline" paint-order="fill stroke markers" d=" M 0 176.5 L 400 176.5" stroke-opacity="0.2" stroke-miterlimit="10" stroke-dasharray=""/><path fill="none" stroke="rgb(0,0,0)" class="dcg-svg-minor-gridline" paint-order="fill stroke markers" d=" M 0 152.5 L 400 152.5" stroke-opacity="0.2" stroke-miterlimit="10" stroke-dasharray=""/><path fill="none" stroke="rgb(0,0,0)" class="dcg-svg-minor-gridline" paint-order="fill stroke markers" d=" M 0 129.5 L 400 129.5" stroke-opacity="0.2" stroke-miterlimit="10" stroke-dasharray=""/><path fill="none" stroke="rgb(0,0,0)" class="dcg-svg-minor-gridline" paint-order="fill stroke markers" d=" M 0 105.5 L 400 105.5" stroke-opacity="0.2" stroke-miterlimit="10" stroke-dasharray=""/><path fill="none" stroke="rgb(0,0,0)" class="dcg-svg-minor-gridline" paint-order="fill stroke markers" d=" M 0 82.5 L 400 82.5" stroke-opacity="0.2" stroke-miterlimit="10" stroke-dasharray=""/><path fill="none" stroke="rgb(0,0,0)" class="dcg-svg-minor-gridline" paint-order="fill stroke markers" d=" M 0 58.5 L 400 58.5" stroke-opacity="0.2" stroke-miterlimit="10" stroke-dasharray=""/><path fill="none" stroke="rgb(0,0,0)" class="dcg-svg-minor-gridline" paint-order="fill stroke markers" d=" M 0 35.5 L 400 35.5" stroke-opacity="0.2" stroke-miterlimit="10" stroke-dasharray=""/><path fill="none" stroke="rgb(0,0,0)" class="dcg-svg-minor-gridline" paint-order="fill stroke markers" d=" M 0 11.5 L 400 11.5" stroke-opacity="0.2" stroke-miterlimit="10" stroke-dasharray=""/><path fill="none" stroke="rgb(0,0,0)" class="dcg-svg-major-gridline" paint-order="fill stroke markers" d=" M 149.5 0 L 149.5 400" stroke-opacity="0.2500000000000001" stroke-miterlimit="10" stroke-dasharray=""/><path fill="none" stroke="rgb(0,0,0)" class="dcg-svg-major-gridline" paint-order="fill stroke markers" d=" M 249.5 0 L 249.5 400" stroke-opacity="0.2500000000000001" stroke-miterlimit="10" stroke-dasharray=""/><path fill="none" stroke="rgb(0,0,0)" class="dcg-svg-major-gridline" paint-order="fill stroke markers" d=" M 349.5 0 L 349.5 400" stroke-opacity="0.2500000000000001" stroke-miterlimit="10" stroke-dasharray=""/><path fill="none" stroke="rgb(0,0,0)" class="dcg-svg-major-gridline" paint-order="fill stroke markers" d=" M 0 223.5 L 400 223.5" stroke-opacity="0.2500000000000001" stroke-miterlimit="10" stroke-dasharray=""/><path fill="none" stroke="rgb(0,0,0)" class="dcg-svg-major-gridline" paint-order="fill stroke markers" d=" M 0 105.5 L 400 105.5" stroke-opacity="0.2500000000000001" stroke-miterlimit="10" stroke-dasharray=""/></g></g><g id="axis-15265e5b"><g id="yaxis-15265e5b"><title>Y axis</title><path fill="none" stroke="rgb(0,0,0)" class="dcg-svg-axis-line" paint-order="fill stroke markers" d=" M 50 0 L 50 400" stroke-opacity="0.9" stroke-miterlimit="10" stroke-width="1.5" stroke-dasharray=""/></g><g id="xaxis-15265e5b"><title>X axis</title><path fill="none" stroke="rgb(0,0,0)" class="dcg-svg-axis-line" paint-order="fill stroke markers" d=" M 0 341 L 400 341" stroke-opacity="0.9" stroke-miterlimit="10" stroke-width="1.5" stroke-dasharray=""/></g><g><g class="dcg-svg-axis-value"><text fill="none" stroke="#ffffff" font-family="Arial" font-size="14px" font-style="normal" font-weight="normal" text-decoration="normal" x="41.10693359375" y="357.232625032474" text-anchor="middle" stroke-miterlimit="2" stroke-width="3" stroke-dasharray="">0</text><text fill="#000000" stroke="none" font-family="Arial" font-size="14px" font-style="normal" font-weight="normal" text-decoration="normal" x="41.10693359375" y="357.232625032474" text-anchor="middle">0</text></g><g class="dcg-svg-axis-value"><text fill="none" stroke="#ffffff" font-family="Arial" font-size="14px" font-style="normal" font-weight="normal" text-decoration="normal" x="150" y="357.232625032474" text-anchor="middle" stroke-miterlimit="2" stroke-width="3" stroke-dasharray="">10</text><text fill="#000000" stroke="none" font-family="Arial" font-size="14px" font-style="normal" font-weight="normal" text-decoration="normal" x="150" y="357.232625032474" text-anchor="middle">10</text></g><g class="dcg-svg-axis-value"><text fill="none" stroke="#ffffff" font-family="Arial" font-size="14px" font-style="normal" font-weight="normal" text-decoration="normal" x="250" y="357.232625032474" text-anchor="middle" stroke-miterlimit="2" stroke-width="3" stroke-dasharray="">20</text><text fill="#000000" stroke="none" font-family="Arial" font-size="14px" font-style="normal" font-weight="normal" text-decoration="normal" x="250" y="357.232625032474" text-anchor="middle">20</text></g><g class="dcg-svg-axis-value"><text fill="none" stroke="#ffffff" font-family="Arial" font-size="14px" font-style="normal" font-weight="normal" text-decoration="normal" x="350" y="357.232625032474" text-anchor="middle" stroke-miterlimit="2" stroke-width="3" stroke-dasharray="">30</text><text fill="#000000" stroke="none" font-family="Arial" font-size="14px" font-style="normal" font-weight="normal" text-decoration="normal" x="350" y="357.232625032474" text-anchor="middle">30</text></g><g class="dcg-svg-axis-value"><text fill="none" stroke="#ffffff" font-family="Arial" font-size="14px" font-style="normal" font-weight="normal" text-decoration="normal" x="37.2138671875" y="227.5855662089448" text-anchor="middle" stroke-miterlimit="2" stroke-width="3" stroke-dasharray="">50</text><text fill="#000000" stroke="none" font-family="Arial" font-size="14px" font-style="normal" font-weight="normal" text-decoration="normal" x="37.2138671875" y="227.5855662089448" text-anchor="middle">50</text></g><g class="dcg-svg-axis-value"><text fill="none" stroke="#ffffff" font-family="Arial" font-size="14px" font-style="normal" font-weight="normal" text-decoration="normal" x="33.32080078125" y="109.93850738541563" text-anchor="middle" stroke-miterlimit="2" stroke-width="3" stroke-dasharray="">100</text><text fill="#000000" stroke="none" font-family="Arial" font-size="14px" font-style="normal" font-weight="normal" text-decoration="normal" x="33.32080078125" y="109.93850738541563" text-anchor="middle">100</text></g></g></g></g><g id="expressions-15265e5b"><g id="sketch-15265e5b"><title>Expression 20</title><path fill="#c74440" stroke="none" paint-order="stroke fill markers" d="" fill-opacity="0.4"/><g><path fill="none" stroke="#c74440" class="dcg-svg-curve" paint-order="fill stroke markers" d=" M 49.5 344.3734342032204 L 49.5 344.3734342032204 L 53.98526077097505 317.8706530602504 L 58.37301587301587 293.07662385603015 L 62.66326530612245 269.9166693692896 L 66.85600907029477 248.31777187256444 L 70.95124716553288 228.20857313219648 L 74.94897959183673 209.51937440833353 L 78.84920634920636 192.18213645492938 L 82.65192743764172 176.1304795197438 L 86.35714285714285 161.29968334434272 L 89.96485260770976 147.6266871640978 L 92.5 138.47167760323532" stroke-linecap="round" stroke-linejoin="round" stroke-miterlimit="10" stroke-width="2.5" stroke-opacity="0.9" stroke-dasharray=""/></g></g><g id="sketch-15265e5b"><title>Expression 21</title><path fill="#2d70b3" stroke="none" paint-order="stroke fill markers" d="" fill-opacity="0.4"/><g><path fill="none" stroke="#2d70b3" class="dcg-svg-curve" paint-order="fill stroke markers" d=" M 92.5 140.6873750517978 L 92.5 140.6873750517978 L 99.42682926829268 168.19050546795395 L 100.89024390243902 172.8848986882927 L 102.15853658536585 176.39479774739226 L 103.32926829268293 179.12418564406354 L 104.40243902439025 181.1672351587223 L 105.28048780487805 182.49953189706986 L 106.0609756097561 183.421833126622 L 106.7439024390244 184.0244575028336 L 107.32926829268293 184.38860898836754 L 107.8170731707317 184.58470697537345 L 108.30487804878047 184.68356566515362 L 108.89024390243901 184.67467232529785 L 109.3780487804878 184.56195690742896 L 109.86585365853657 184.35462701279423 L 110.45121951219511 183.98273252263556 L 111.13414634146342 183.38240458624838 L 111.91463414634147 182.4826821245022 L 112.79268292682926 181.20796354683938 L 113.76829268292681 179.4812937121365 L 114.84146341463415 177.22859142144821 L 116.10975609756096 174.12987101170557 L 117.57317073170731 170.0365256378572 L 119.32926829268293 164.51889205171835 L 121.57317073170731 156.77175474706186 L 129.5731707317073 128.4542855769409 L 131.3292682926829 123.26000452666887 L 132.79268292682926 119.48487007175106 L 134.0609756097561 116.6864242507051 L 135.2317073170732 114.53458091384016 L 136.2073170731707 113.08013524027649 L 137.08536585365852 112.04719874458709 L 137.8658536585366 111.35563447130272 L 138.5487804878049 110.92914756586026 L 139.1341463414634 110.69798135785828 L 139.6219512195122 110.60075039935077 L 140.2073170731707 110.59887381073185 L 140.79268292682926 110.72212216526879 L 141.28048780487805 110.91998389710187 L 141.8658536585366 111.27064964882067 L 142.54878048780486 111.83379353762325 L 143.3292682926829 112.67609498432716 L 144.2073170731707 113.8685155185903 L 145.1829268292683 115.4821157267678 L 146.35365853658536 117.78848649315438 L 147.71951219512195 120.92695166201457 L 149.3780487804878 125.25057552330094 L 152.0121951219512 132.7434042998524 L 154.4512195121951 139.48151695712767 L 155.8170731707317 142.73170581058747 L 156.890243902439 144.8227082205605 L 157.67073170731706 146.00584383917368 L 158.35365853658533 146.75976683103147 L 158.84146341463415 147.11512954858932 L 159.23170731707316 147.27830227622752 L 159.57914766972448 147.3261608488242 L 160.109756097561 147.20892959585888 L 160.5 146.96540389642217" stroke-linecap="round" stroke-linejoin="round" stroke-miterlimit="10" stroke-width="2.5" stroke-opacity="0.9" stroke-dasharray=""/></g></g><g id="sketch-15265e5b"><title>Expression 22</title><path fill="#c74440" stroke="none" paint-order="stroke fill markers" d="" fill-opacity="0.4"/><g><path fill="none" stroke="#c74440" class="dcg-svg-curve" paint-order="fill stroke markers" d=" M 160.5 145.48606864256894 L 160.5 145.48606864256894 L 161.28078078078076 146.09889283676728 L 161.96396396396395 146.49137858345654 L 162.5495495495495 146.7176485933793 L 163.13513513513513 146.83983958715498 L 163.81831831831832 146.8483105045974 L 164.4039039039039 146.7388746659896 L 164.98948948948947 146.52046819331946 L 165.57507507507506 146.19226611270446 L 166.25825825825825 145.66997374407688 L 167.03903903903904 144.88910864194364 L 167.91741741741743 143.77709399206606 L 168.8933933933934 142.25484757463067 L 169.96696696696696 140.23928309711778 L 171.13813813813815 137.64697580948996 L 172.40690690690693 134.39927230236162 L 173.87087087087087 130.1281001308551 L 175.53003003003005 124.68854794571234 L 177.48198198198196 117.62728645957355 L 180.21471471471472 106.96427187204165 L 184.70420420420422 89.42796297068116 L 186.46096096096096 83.33742426249279 L 187.82732732732734 79.19794033493542 L 188.99849849849846 76.19662614912232 L 189.97447447447445 74.16121822565901 L 190.75525525525524 72.88351440291797 L 191.43843843843842 72.05009996111824 L 192.02402402402402 71.56575077197692 L 192.512012012012 71.33584174450573 L 192.93264206723305 71.27170481347332 L 193 71.27337850799523" stroke-linecap="round" stroke-linejoin="round" stroke-miterlimit="10" stroke-width="2.5" stroke-opacity="0.9" stroke-dasharray=""/></g></g><g id="sketch-15265e5b"><title>Expression 23</title><path fill="#2d70b3" stroke="none" paint-order="stroke fill markers" d="" fill-opacity="0.4"/><g><path fill="none" stroke="#2d70b3" class="dcg-svg-curve" paint-order="fill stroke markers" d=" M 193 71.56582536455511 L 193 71.56582536455511 L 193.4875 70.41361400698963 L 193.8775 69.8375136926249 L 194.17 69.59936631465706 L 194.4638248863128 69.52094017095476 L 194.755 69.59569764877114 L 195.04749999999999 69.81651862267233 L 195.4375 70.32490301170822 L 195.92499999999998 71.27683901124192 L 196.51 72.82971478949622 L 197.29 75.47484519239782 L 198.36249999999995 79.8713690607342 L 201.87249999999995 94.90960526504983 L 202.75 97.62774722053769 L 203.4325 99.2083663313183 L 204.01749999999998 100.14119522049191 L 204.505 100.59862910337353 L 204.7975 100.72773844392907 L 205.08999999999997 100.7453419044092 L 205.3825 100.65000921877038 L 205.675 100.44083267839562 L 206.065 99.98424998490293 L 206.5525 99.1289871794691 L 207.13750000000002 97.69193192127915 L 207.82 95.46920010661421 L 208.6 92.25588727035989 L 209.575 87.345916229522 L 210.74499999999998 80.40759236009728 L 212.59750000000003 68.07658537735006 L 214.9375 52.75397215208636 L 216.205 45.76061534920211 L 217.18 41.372661156199115 L 218.0575 38.25559025690893 L 218.8375 36.146512859394136 L 219.51999999999998 34.76502059526359 L 220.2025 33.73294997253896 L 221.07999999999998 32.71309388423725 L 221.95749999999998 31.673223678189743 L 222.5425 30.707811454149407 L 223.03000000000003 29.568935969682855 L 223.51749999999996 27.979650343551953 L 224.005 25.78198501681635 L 224.2 24.693207025914205" stroke-linecap="round" stroke-linejoin="round" stroke-miterlimit="10" stroke-width="2.5" stroke-opacity="0.9" stroke-dasharray=""/></g></g><g id="sketch-15265e5b"><title>Expression 24</title><path fill="#c74440" stroke="none" paint-order="stroke fill markers" d="" fill-opacity="0.4"/><g><path fill="none" stroke="#c74440" class="dcg-svg-curve" paint-order="fill stroke markers" d=" M 224.2 24.30353128247458 L 224.2 24.30353128247458 L 224.49076923076922 29.895787716298116 L 224.7239343668609 30.946454076592204 L 224.78153846153845 30.897051503062812 L 224.9753846153846 30.141651686886348 L 225.84769230769228 25.139928341298116 L 225.93628014197708 25.07444120894519 L 226.04153846153844 25.170374113356957 L 226.23538461538465 25.874073561886348 L 226.52615384615385 28.21954690747458 L 226.91384615384615 33.57972613541574 L 227.4953846153846 45.166352973651044 L 229.23999999999995 82.81915628247447 L 230.0153846153846 94.51665168688623 L 231.3723076923077 114.20874727512148 L 232.3415384615385 129.66773165012148 L 232.6761407095155 131.69783275306264 L 232.72923076923078 131.6334945177685 L 232.82615384615383 131.15785113541557 L 233.02 128.52572797365087" stroke-linecap="round" stroke-linejoin="round" stroke-miterlimit="10" stroke-width="2.5" stroke-opacity="0.9" stroke-dasharray=""/></g></g><g id="sketch-15265e5b"><title>Expression 25</title><path fill="#2d70b3" stroke="none" paint-order="stroke fill markers" d="" fill-opacity="0.4"/><g><path fill="none" stroke="#2d70b3" class="dcg-svg-curve" paint-order="fill stroke markers" d=" M 233.02 130.6845847512946 L 233.02 130.6845847512946 L 233.70161016949152 131.41676314056747 L 234.28584745762714 131.83523872582782 L 234.7727118644068 132.04401827329747 L 235.1622033898305 132.1235271255967 L 235.7464406779661 132.10374729616842 L 236.23330508474578 131.9660548850875 L 236.72016949152538 131.72422993440023 L 237.30440677966106 131.3045811533786 L 237.98601694915254 130.6488976887614 L 238.765 129.69960276182718 L 239.7387288135593 128.2471448492562 L 240.9072033898305 126.17426862037718 L 242.3677966101695 123.19050328367518 L 244.41262711864408 118.5550231962809 L 248.30754237288133 109.65082864093631 L 249.86550847457625 106.58412945167225 L 251.03398305084747 104.6427288297059 L 252.00771186440682 103.3230107125753 L 252.78669491525426 102.49507788440087 L 253.46830508474574 101.95664790580275 L 254.05254237288133 101.64571933817854 L 254.539406779661 101.50028876288928 L 255.02627118644068 101.46425817925098 L 255.61050847457625 101.5734255797143 L 256 101.74311321375723" stroke-linecap="round" stroke-linejoin="round" stroke-miterlimit="10" stroke-width="2.5" stroke-opacity="0.9" stroke-dasharray=""/></g></g><g id="sketch-15265e5b"><title>Expression 26</title><path fill="#c74440" stroke="none" paint-order="stroke fill markers" d="" fill-opacity="0.4"/><g><path fill="none" stroke="#c74440" class="dcg-svg-curve" paint-order="fill stroke markers" d=" M 256 99.79308996300529 L 256 99.79308996300529 L 256.4868421052631 100.50495072931096 L 256.97368421052624 100.94866487203319 L 257.5578947368421 101.28613048786667 L 258.4342105263158 101.76879409213319 L 258.92105263157896 102.20320365178276 L 259.4078947368421 102.86652290377589 L 259.89473684210526 103.83741234763625 L 260.38157894736844 105.18761555669982 L 260.9657894736842 107.39934255703452 L 261.54999999999995 110.34913927048484 L 262.2315789473684 114.83538127729162 L 263.01052631578943 121.47211609249644 L 263.7894736842105 129.83372936085783 L 264.66578947368424 141.39481389955597 L 265.63947368421054 156.95696447433826 L 266.7105263157895 177.31233304646113 L 267.9763157894737 205.42983793768838 L 268.95 229.6646409323463" stroke-linecap="round" stroke-linejoin="round" stroke-miterlimit="10" stroke-width="2.5" stroke-opacity="0.9" stroke-dasharray=""/></g></g><g id="sketch-15265e5b"><title>Expression 27</title><path fill="#2d70b3" stroke="none" paint-order="stroke fill markers" d="" fill-opacity="0.4"/><g><path fill="none" stroke="#2d70b3" class="dcg-svg-curve" paint-order="fill stroke markers" d=" M 268.95 227.43946217516535 L 268.95 227.43946217516535 L 272.17199999999997 235.2520751323513 L 275.394 242.58109750438737 L 278.616 249.45434252054827 L 281.83799999999997 255.89962341010812 L 285.06 261.9447534023449 L 288.282 267.6175457265284 L 291.504 272.9458136119372 L 294.82363636363635 278.1045854139739 L 298.14327272727274 282.9575796592666 L 301.56054545454543 287.6659948173318 L 305.1730909090909 292.3629492620013 L 308.9809090909091 297.04412927626896 L 312.984 301.71645782085204 L 317.47527272727274 306.71992336515603 L 322.9429090909091 312.5758254959047 L 340.908 331.62684842209353 L 345.30163636363636 336.62061136820125 L 349.2070909090909 341.2878655187949 L 349.5 341.648037892417" stroke-linecap="round" stroke-linejoin="round" stroke-miterlimit="10" stroke-width="2.5" stroke-opacity="0.9" stroke-dasharray=""/></g></g></g><g id="labels-15265e5b"/></g></svg>