<svg version="1.1" xmlns="http://www.w3.org/2000/svg" xmlns:xlink="http://www.w3.org/1999/xlink" width="800" height="800"><defs/><g transform="scale(2,2)"><g id="background-4730c67d"><rect fill="white" stroke="none" x="0" y="0" width="400" height="400" class="dcg-svg-background"/></g><g id="background-images-4730c67d"/><g id="graphpaper-4730c67d"><g id="grid-4730c67d"><g><path fill="none" stroke="rgb(0,0,0)" class="dcg-svg-minor-gridline" paint-order="fill stroke markers" d=" M 22.5 0 L 22.5 400" stroke-opacity="0.2" stroke-miterlimit="10" stroke-dasharray=""/><path fill="none" stroke="rgb(0,0,0)" class="dcg-svg-minor-gridline" paint-order="fill stroke markers" d=" M 97.5 0 L 97.5 400" stroke-opacity="0.2" stroke-miterlimit="10" stroke-dasharray=""/><path fill="none" stroke="rgb(0,0,0)" class="dcg-svg-minor-gridline" paint-order="fill stroke markers" d=" M 135.5 0 L 135.5 400" stroke-opacity="0.2" stroke-miterlimit="10" stroke-dasharray=""/><path fill="none" stroke="rgb(0,0,0)" class="dcg-svg-minor-gridline" paint-order="fill stroke markers" d=" M 172.5 0 L 172.5 400" stroke-opacity="0.2" stroke-miterlimit="10" stroke-dasharray=""/><path fill="none" stroke="rgb(0,0,0)" class="dcg-svg-minor-gridline" paint-order="fill stroke markers" d=" M 210.5 0 L 210.5 400" stroke-opacity="0.2" stroke-miterlimit="10" stroke-dasharray=""/><path fill="none" stroke="rgb(0,0,0)" class="dcg-svg-minor-gridline" paint-order="fill stroke markers" d=" M 248.5 0 L 248.5 400" stroke-opacity="0.2" stroke-miterlimit="10" stroke-dasharray=""/><path fill="none" stroke="rgb(0,0,0)" class="dcg-svg-minor-gridline" paint-order="fill stroke markers" d=" M 285.5 0 L 285.5 400" stroke-opacity="0.2" stroke-miterlimit="10" stroke-dasharray=""/><path fill="none" stroke="rgb(0,0,0)" class="dcg-svg-minor-gridline" paint-order="fill stroke markers" d=" M 323.5 0 L 323.5 400" stroke-opacity="0.2" stroke-miterlimit="10" stroke-dasharray=""/><path fill="none" stroke="rgb(0,0,0)" class="dcg-svg-minor-gridline" paint-order="fill stroke markers" d=" M 361.5 0 L 361.5 400" stroke-opacity="0.2" stroke-miterlimit="10" stroke-dasharray=""/><path fill="none" stroke="rgb(0,0,0)" class="dcg-svg-minor-gridline" paint-order="fill stroke markers" d=" M 398.5 0 L 398.5 400" stroke-opacity="0.2" stroke-miterlimit="10" stroke-dasharray=""/><path fill="none" stroke="rgb(0,0,0)" class="dcg-svg-minor-gridline" paint-order="fill stroke markers" d=" M 0 387.5 L 400 387.5" stroke-opacity="0.2" stroke-miterlimit="10" stroke-dasharray=""/><path fill="none" stroke="rgb(0,0,0)" class="dcg-svg-minor-gridline" paint-order="fill stroke markers" d=" M 0 364.5 L 400 364.5" stroke-opacity="0.2" stroke-miterlimit="10" stroke-dasharray=""/><path fill="none" stroke="rgb(0,0,0)" class="dcg-svg-minor-gridline" paint-order="fill stroke markers" d=" M 0 317.5 L 400 317.5" stroke-opacity="0.2" stroke-miterlimit="10" stroke-dasharray=""/><path fill="none" stroke="rgb(0,0,0)" class="dcg-svg-minor-gridline" paint-order="fill stroke markers" d=" M 0 293.5 L 400 293.5" stroke-opacity="0.2" stroke-miterlimit="10" stroke-dasharray=""/><path fill="none" stroke="rgb(0,0,0)" class="dcg-svg-minor-gridline" paint-order="fill stroke markers" d=" M 0 270.5 L 400 270.5" stroke-opacity="0.2" stroke-miterlimit="10" stroke-dasharray=""/><path fill="none" stroke="rgb(0,0,0)" class="dcg-svg-minor-gridline" paint-order="fill stroke markers" d=" M 0 246.5 L 400 246.5" stroke-opacity="0.2" stroke-miterlimit="10" stroke-dasharray=""/><path fill="none" stroke="rgb(0,0,0)" class="dcg-svg-minor-gridline" paint-order="fill stroke markers" d=" M 0 223.5 L 400 223.5" stroke-opacity="0.2" stroke-miterlimit="10" stroke-dasharray=""/><path fill="none" stroke="rgb(0,0,0)" class="dcg-svg-minor-gridline" paint-order="fill stroke markers" d=" M 0 199.5 L 400 199.5" stroke-opacity="0.2" stroke-miterlimit="10" stroke-dasharray=""/><path fill="none" stroke="rgb(0,0,0)" class="dcg-svg-minor-gridline" paint-order="fill stroke markers" d=" M 0 176.5 L 400 176.5" stroke-opacity="0.2" stroke-miterlimit="10" stroke-dasharray=""/><path fill="none" stroke="rgb(0,0,0)" class="dcg-svg-minor-gridline" paint-order="fill stroke markers" d=" M 0 152.5 L 400 152.5" stroke-opacity="0.2" stroke-miterlimit="10" stroke-dasharray=""/><path fill="none" stroke="rgb(0,0,0)" class="dcg-svg-minor-gridline" paint-order="fill stroke markers" d=" M 0 129.5 L 400 129.5" stroke-opacity="0.2" stroke-miterlimit="10" stroke-dasharray=""/><path fill="none" stroke="rgb(0,0,0)" class="dcg-svg-minor-gridline" paint-order="fill stroke markers" d=" M 0 105.5 L 400 105.5" stroke-opacity="0.2" stroke-miterlimit="10" stroke-dasharray=""/><path fill="none" stroke="rgb(0,0,0)" class="dcg-svg-minor-gridline" paint-order="fill stroke markers" d=" M 0 82.5 L 400 82.5" stroke-opacity="0.2" stroke-miterlimit="10" stroke-dasharray=""/><path fill="none" stroke="rgb(0,0,0)" class="dcg-svg-minor-gridline" paint-order="fill stroke markers" d=" M 0 58.5 L 400 58.5" stroke-opacity="0.2" stroke-miterlimit="10" stroke-dasharray=""/><path fill="none" stroke="rgb(0,0,0)" class="dcg-svg-minor-gridline" paint-order="fill stroke markers" d=" M 0 35.5 L 400 35.5" stroke-opacity="0.2" stroke-miterlimit="10" stroke-dasharray=""/><path fill="none" stroke="rgb(0,0,0)" class="dcg-svg-minor-gridline" paint-order="fill stroke markers" d=" M 0 11.5 L 400 11.5" stroke-opacity="0.2" stroke-miterlimit="10" stroke-dasharray=""/><path fill="none" stroke="rgb(0,0,0)" class="dcg-svg-major-gridline" paint-order="fill stroke markers" d=" M 210.5 0 L 210.5 400" stroke-opacity="0.2500000000000001" stroke-miterlimit="10" stroke-dasharray=""/><path fill="none" stroke="rgb(0,0,0)" class="dcg-svg-major-gridline" paint-order="fill stroke markers" d=" M 361.5 0 L 361.5 400" stroke-opacity="0.2500000000000001" stroke-miterlimit="10" stroke-dasharray=""/><path fill="none" stroke="rgb(0,0,0)" class="dcg-svg-major-gridline" paint-order="fill stroke markers" d=" M 0 223.5 L 400 223.5" stroke-opacity="0.2500000000000001" stroke-miterlimit="10" stroke-dasharray=""/><path fill="none" stroke="rgb(0,0,0)" class="dcg-svg-major-gridline" paint-order="fill stroke markers" d=" M 0 105.5 L 400 105.5" stroke-opacity="0.2500000000000001" stroke-miterlimit="10" stroke-dasharray=""/></g></g><g id="axis-4730c67d"><g id="yaxis-4730c67d"><title>Y axis</title><path fill="none" stroke="rgb(0,0,0)" class="dcg-svg-axis-line" paint-order="fill stroke markers" d=" M 60 0 L 60 400" stroke-opacity="0.9" stroke-miterlimit="10" stroke-width="1.5" stroke-dasharray=""/></g><g id="xaxis-4730c67d"><title>X axis</title><path fill="none" stroke="rgb(0,0,0)" class="dcg-svg-axis-line" paint-order="fill stroke markers" d=" M 0 341 L 400 341" stroke-opacity="0.9" stroke-miterlimit="10" stroke-width="1.5" stroke-dasharray=""/></g><g><g class="dcg-svg-axis-value"><text fill="none" stroke="#ffffff" font-family="Arial" font-size="14px" font-style="normal" font-weight="normal" text-decoration="normal" x="51.50301460154613" y="357.232625032474" text-anchor="middle" stroke-miterlimit="2" stroke-width="3" stroke-dasharray="">0</text><text fill="#000000" stroke="none" font-family="Arial" font-size="14px" font-style="normal" font-weight="normal" text-decoration="normal" x="51.50301460154613" y="357.232625032474" text-anchor="middle">0</text></g><g class="dcg-svg-axis-value"><text fill="none" stroke="#ffffff" font-family="Arial" font-size="14px" font-style="normal" font-weight="normal" text-decoration="normal" x="210.98431630191305" y="357.232625032474" text-anchor="middle" stroke-miterlimit="2" stroke-width="3" stroke-dasharray="">20</text><text fill="#000000" stroke="none" font-family="Arial" font-size="14px" font-style="normal" font-weight="normal" text-decoration="normal" x="210.98431630191305" y="357.232625032474" text-anchor="middle">20</text></g><g class="dcg-svg-axis-value"><text fill="none" stroke="#ffffff" font-family="Arial" font-size="14px" font-style="normal" font-weight="normal" text-decoration="normal" x="361.57255159602994" y="357.232625032474" text-anchor="middle" stroke-miterlimit="2" stroke-width="3" stroke-dasharray="">40</text><text fill="#000000" stroke="none" font-family="Arial" font-size="14px" font-style="normal" font-weight="normal" text-decoration="normal" x="361.57255159602994" y="357.232625032474" text-anchor="middle">40</text></g><g class="dcg-svg-axis-value"><text fill="none" stroke="#ffffff" font-family="Arial" font-size="14px" font-style="normal" font-weight="normal" text-decoration="normal" x="47.60994819529613" y="227.5855662089448" text-anchor="middle" stroke-miterlimit="2" stroke-width="3" stroke-dasharray="">50</text><text fill="#000000" stroke="none" font-family="Arial" font-size="14px" font-style="normal" font-weight="normal" text-decoration="normal" x="47.60994819529613" y="227.5855662089448" text-anchor="middle">50</text></g><g class="dcg-svg-axis-value"><text fill="none" stroke="#ffffff" font-family="Arial" font-size="14px" font-style="normal" font-weight="normal" text-decoration="normal" x="43.71688178904613" y="109.93850738541563" text-anchor="middle" stroke-miterlimit="2" stroke-width="3" stroke-dasharray="">100</text><text fill="#000000" stroke="none" font-family="Arial" font-size="14px" font-style="normal" font-weight="normal" text-decoration="normal" x="43.71688178904613" y="109.93850738541563" text-anchor="middle">100</text></g></g></g></g><g id="expressions-4730c67d"><g id="sketch-4730c67d"><title>Expression 20</title><path fill="#c74440" stroke="none" paint-order="stroke fill markers" d="" fill-opacity="0.4"/><g><path fill="none" stroke="#c74440" class="dcg-svg-curve" paint-order="fill stroke markers" d=" M 59.89608100779613 344.3734342032204 L 59.89608100779613 344.3734342032204 L 63.79686059674012 313.8660804814795 L 67.60012069596051 285.6249579032228 L 71.3058613054573 259.53587300259403 L 74.91408242523049 235.48756035132303 L 78.42478405528009 213.3716825587256 L 81.83796619560609 193.08283027170373 L 85.15362884620848 174.51852217474539 L 88.37177200708726 157.5792049899246 L 91.49239567824247 142.16825347690138 L 92.27255159603125 138.47167760323532" stroke-linecap="round" stroke-linejoin="round" stroke-miterlimit="10" stroke-width="2.5" stroke-opacity="0.9" stroke-dasharray=""/></g></g><g id="sketch-4730c67d"><title>Expression 21</title><path fill="#2d70b3" stroke="none" paint-order="stroke fill markers" d="" fill-opacity="0.4"/><g><path fill="none" stroke="#2d70b3" class="dcg-svg-curve" paint-order="fill stroke markers" d=" M 92.27255159603125 140.6873750517978 L 92.27255159603125 140.6873750517978 L 97.53883731031695 168.42071487149903 L 98.80664683412647 173.7294824892198 L 99.87940873888836 177.4904467149244 L 100.85464683412646 180.26310036234037 L 101.73236111984073 182.1995814013382 L 102.41502778650741 183.32763083290422 L 103.00017064365025 184.02721342551024 L 103.4877896912693 184.42083008122074 L 103.97540873888835 184.64252235725004 L 104.36460014246848 184.6967271002589 L 104.95064683412645 184.57476186468205 L 105.34074207222167 184.3596449236167 L 105.82836111984072 183.9428246996158 L 106.41350397698358 183.23036307019132 L 107.09617064365023 182.11560862330558 L 107.87636111984071 180.4841317582112 L 108.75407540555499 178.22060066316976 L 109.82683731031689 174.8914093213679 L 111.09464683412641 170.2586741690769 L 112.55750397698354 164.1493144792886 L 114.50798016745972 155.12468140199906 L 119.96931350079304 129.3669253147309 L 121.52969445317397 123.18307434934536 L 122.79750397698348 118.90076753440889 L 123.87026588174541 115.8939311991233 L 124.84550397698348 113.70624941114983 L 125.62569445317395 112.3568389770059 L 126.30836111984063 111.48141789946817 L 126.89350397698348 110.96397792785615 L 127.3811230246025 110.69959463209631 L 127.86874207222155 110.58810034309653 L 128.55140873888823 110.68948383224739 L 129.03902778650726 110.94512200476873 L 129.52664683412632 111.35188507490926 L 130.11178969126917 112.0362150994415 L 130.79445635793581 113.09790808103105 L 131.5746468341263 114.6434558099919 L 132.4523611198406 116.7769419151416 L 133.5251230246025 119.88967777526835 L 134.8904563579358 124.49952331078816 L 137.03598016745963 132.56842773129029 L 139.0839801674596 140.0408833411514 L 140.1567420722215 143.3209287210214 L 141.03445635793577 145.42564032696012 L 141.71712302460247 146.58371358465268 L 142.20474207222148 147.10074620737362 L 142.59483731031673 147.30225246320416 L 142.88740873888818 147.31774436162658 L 143.17998016745958 147.2081784896252 L 143.472551596031 146.96540389642217" stroke-linecap="round" stroke-linejoin="round" stroke-miterlimit="10" stroke-width="2.5" stroke-opacity="0.9" stroke-dasharray=""/></g></g><g id="sketch-4730c67d"><title>Expression 22</title><path fill="#c74440" stroke="none" paint-order="stroke fill markers" d="" fill-opacity="0.4"/><g><path fill="none" stroke="#c74440" class="dcg-svg-curve" paint-order="fill stroke markers" d=" M 143.472551596031 145.48606864256894 L 143.472551596031 145.48606864256894 L 144.15499827988384 146.18125948292862 L 144.7399525803291 146.58817124638364 L 145.22741449736685 146.78942547260817 L 145.74412085535312 146.862528250646 L 146.39732309825737 146.74425134706388 L 146.88478501529508 146.50040737851194 L 147.37224693233284 146.12231124363416 L 147.95720123277812 145.49058930075003 L 148.63964791663093 144.50821225106566 L 149.41958698389132 143.06428813576434 L 150.2970184345592 141.03755596127814 L 151.27194226863466 138.30211268853213 L 152.34435848611767 134.7360672949623 L 153.6117594704158 129.83210151946355 L 155.07414522152897 123.37009372415366 L 156.92650050627233 114.24054498835352 L 163.0685206609477 83.12733475154579 L 164.2384292618383 78.50458349554674 L 165.21335309591373 75.35841262695368 L 165.9932921631741 73.40700127452925 L 166.67573884702693 72.17801193615708 L 167.16320076406464 71.6050596264173 L 167.55317029769483 71.34521795419374 L 167.89242327018331 71.27170481347332 L 167.943139831325 71.27337850799523" stroke-linecap="round" stroke-linejoin="round" stroke-miterlimit="10" stroke-width="2.5" stroke-opacity="0.9" stroke-dasharray=""/></g></g><g id="sketch-4730c67d"><title>Expression 23</title><path fill="#2d70b3" stroke="none" paint-order="stroke fill markers" d="" fill-opacity="0.4"/><g><path fill="none" stroke="#2d70b3" class="dcg-svg-curve" paint-order="fill stroke markers" d=" M 167.943139831325 71.56582536455511 L 167.943139831325 71.56582536455511 L 168.43052084182048 70.14113316153828 L 168.7229494481178 69.68851831418675 L 169.04531386211397 69.52094017095476 L 169.30780666071237 69.62777430909568 L 169.60023526700965 69.98808035468403 L 169.99014007540603 70.83324452046134 L 170.47752108590151 72.40942203335953 L 171.15985450059517 75.40832525179712 L 172.13461652158614 80.77341548172916 L 174.57152157406355 94.66651017564232 L 175.35133119085634 97.86212565657013 L 175.9361884034509 99.54421722226328 L 176.42356941394638 100.40896133854153 L 176.7159980202437 100.6771016335141 L 176.97067754341137 100.75196766190714 L 177.30085523283827 100.62483814222014 L 177.59328383913552 100.29854215632508 L 177.9831886475319 99.55044064840894 L 178.47056965802744 98.11764964675245 L 179.05542687062197 95.69275265620081 L 179.73776028531566 91.95910568135673 L 180.61504610420752 85.92023094300009 L 181.7847605293967 76.27719050333826 L 185.09895140076597 47.93001517166164 L 185.97623721965786 42.321080306383294 L 186.75604683645062 38.47993028903761 L 187.4383802511443 36.020929168638645 L 188.02323746373884 34.513697820937466 L 188.70557087843252 33.27421158941411 L 189.97276150572083 31.219955669116132 L 190.4601425162163 29.89704782861179 L 190.85004732461266 28.3292141245048 L 191.33742833510814 25.43068106072849 L 191.43490453720725 24.693207025914205" stroke-linecap="round" stroke-linejoin="round" stroke-miterlimit="10" stroke-width="2.5" stroke-opacity="0.9" stroke-dasharray=""/></g></g><g id="sketch-4730c67d"><title>Expression 24</title><path fill="#c74440" stroke="none" paint-order="stroke fill markers" d="" fill-opacity="0.4"/><g><path fill="none" stroke="#c74440" class="dcg-svg-curve" paint-order="fill stroke markers" d=" M 191.43490453720725 24.30353128247458 L 191.43490453720725 24.30353128247458 L 191.6273955858006 29.512056098651044 L 191.82939663931984 30.947028525121652 L 191.9161321586906 30.75746051041574 L 192.10862320728396 29.383379628062812 L 192.58985082876737 25.412216944239276 L 192.74221938551125 25.073292311886348 L 192.87858740165737 25.361665473651044 L 193.07107845025072 26.79319120894519 L 193.35981502314073 31.123958672180436 L 193.84104264462408 42.967938451592204 L 195.38097103337094 86.13946878247447 L 196.34342627633765 104.07834745894502 L 197.1133904707111 120.57133918688618 L 197.59461809219445 130.0796112457097 L 197.81693982711744 131.69783275306264 L 197.88335466508445 131.51688146629795 L 197.97960018938113 130.53342558394496 L 198.0758457136778 128.52572797365087" stroke-linecap="round" stroke-linejoin="round" stroke-miterlimit="10" stroke-width="2.5" stroke-opacity="0.9" stroke-dasharray=""/></g></g><g id="sketch-4730c67d"><title>Expression 25</title><path fill="#2d70b3" stroke="none" paint-order="stroke fill markers" d="" fill-opacity="0.4"/><g><path fill="none" stroke="#2d70b3" class="dcg-svg-curve" paint-order="fill stroke markers" d=" M 198.0758457136778 130.6845847512946 L 198.0758457136778 130.6845847512946 L 198.6590790249799 131.49600105116792 L 199.1451067843982 131.91485023517794 L 199.53392899193295 132.09102452307792 L 199.9227511994676 132.13329136035804 L 200.40877895888602 132.00814152630954 L 200.79760116642066 131.77389413193436 L 201.28362892583908 131.32454360350505 L 201.8668622371411 130.5732004207992 L 202.54730110032685 129.4330684964088 L 203.42215106727986 127.60602317477992 L 204.49141213800033 124.92602141255338 L 205.94949541625542 120.72005221128609 L 210.42095080290443 107.41976414300137 L 211.49021187362487 104.94613054038717 L 212.36506184057794 103.3348337491874 L 213.04550070376368 102.3916896135583 L 213.62873401506565 101.82951724380757 L 214.11476177448407 101.55214018172757 L 214.50358398201877 101.46485193127256 L 215.0868172933208 101.57415825455638 L 215.37843394897183 101.74311321375723" stroke-linecap="round" stroke-linejoin="round" stroke-miterlimit="10" stroke-width="2.5" stroke-opacity="0.9" stroke-dasharray=""/></g></g><g id="sketch-4730c67d"><title>Expression 26</title><path fill="#c74440" stroke="none" paint-order="stroke fill markers" d="" fill-opacity="0.4"/><g><path fill="none" stroke="#c74440" class="dcg-svg-curve" paint-order="fill stroke markers" d=" M 215.37843394897183 99.79308996300529 L 215.37843394897183 99.79308996300529 L 215.7684574783836 100.54014138609216 L 216.25598689014828 101.07489712706428 L 217.52356336073655 102.1264661339631 L 217.9135868901483 102.80001864883872 L 218.30361041956007 103.81450492401376 L 218.79113983132476 105.6935203136245 L 219.27866924308947 108.39045557637468 L 219.86370453720713 112.88585180038956 L 220.44873983132476 118.92389311241794 L 221.13128100779534 128.09701484524192 L 221.91132806661886 141.55044192947042 L 222.78888100779534 160.55029122876803 L 223.76393983132476 186.31813642465045 L 224.93401041956005 223.02240294300478 L 225.12902218426592 229.6646409323463" stroke-linecap="round" stroke-linejoin="round" stroke-miterlimit="10" stroke-width="2.5" stroke-opacity="0.9" stroke-dasharray=""/></g></g><g id="sketch-4730c67d"><title>Expression 27</title><path fill="#2d70b3" stroke="none" paint-order="stroke fill markers" d="" fill-opacity="0.4"/><g><path fill="none" stroke="#2d70b3" class="dcg-svg-curve" paint-order="fill stroke markers" d=" M 225.12902218426592 227.43946217516535 L 225.12902218426592 227.43946217516535 L 227.85922078460635 236.19709572288167 L 230.5894193849468 244.3466649703312 L 233.3196179852872 251.92781363584413 L 236.0498165856277 258.98018543775873 L 238.87752227883743 265.76927654038775 L 241.7052279720472 272.07771728503906 L 244.53293366525693 277.94955243512516 L 247.45814645133598 283.6112983168907 L 250.48086633028433 289.07222416186715 L 253.601093302102 294.3504456977578 L 257.01384155252754 299.7752428429691 L 260.8166181744303 305.4834918552091 L 265.39945153928744 312.038550007025 L 280.2205296554213 332.9792256105437 L 283.82829209158547 338.5135620598636 L 285.7784339489715 341.648037892417" stroke-linecap="round" stroke-linejoin="round" stroke-miterlimit="10" stroke-width="2.5" stroke-opacity="0.9" stroke-dasharray=""/></g></g></g><g id="labels-4730c67d"/></g></svg>